<svg xmlns="http://www.w3.org/2000/svg" width="32" height="32" viewBox="0 0 32 32" id="delivery">
  <g transform="translate(0 -1020.362)">
    <path fill="#f05542"
      style="line-height:normal;text-indent:0;text-align:start;text-decoration-line:none;text-decoration-style:solid;text-decoration-color:#000;text-transform:none;block-progression:tb;isolation:auto;mix-blend-mode:normal"
      d="m 3.6738281,1039.2988 a 0.50005,0.50005 0 0 0 -0.5,0.4961 l -0.03125,5.0625 a 0.50005,0.50005 0 0 0 0.5,0.5039 l 5.015625,0 a 0.50005,0.50005 0 0 0 0.5,-0.498 l 0.015625,-5.0625 a 0.50005,0.50005 0 0 0 -0.5,-0.502 l -5,0 z m 0.4960938,1 4.0019531,0 -0.011719,4.0625 -4.0136718,0 0.023437,-4.0625 z"
      color="#000" font-family="sans-serif" font-weight="400" overflow="visible"></path>
    <path fill="#2b4255" fill-rule="evenodd"
      style="line-height:normal;text-indent:0;text-align:start;text-decoration-line:none;text-decoration-style:solid;text-decoration-color:#000;text-transform:none;block-progression:tb;isolation:auto;mix-blend-mode:normal"
      d="M17.9375 1032.8848a.50005.50005 0 0 0-.349609.8574l1.496093 1.4961a.50005.50005 0 1 0 .707032-.7071l-1.496094-1.496a.50005.50005 0 0 0-.357422-.1504zM15.527344 1035.418l-.455078.8886 1.595703.8204-.152344.6132-.25 1-.40625 1.6211 1.640625 0c0 0 .146601.01.277344.072.130743.065.222656.094.222656.4277l0 .5 4 0 0-1.5c0-.4185.07394-.4534.08789-.4629.01395-.01.154217-.04.40625-.037l.0039 0 4.001953 0c.333333 0 .725052.1821 1.021484.4785C27.817917 1040.1363 28 1040.528 28 1040.8613l0 2.4707 1 0 0-2.4707c0-.6666-.317917-1.2749-.771484-1.7285-.453568-.4536-1.061849-.7715-1.728516-.7715l-3.994141 0c-.259297 0-.618346-.033-.976562.209C21.171081 1038.8123 21 1039.2799 21 1039.8613l0 .5-2.148438 0c-.142412-.3813-.369309-.6924-.628906-.8222C17.853399 1039.3544 17.5 1039.3613 17.5 1039.3613l-.359375 0 .09375-.3769.25-1 .347656-1.3867-2.304687-1.1797zm-2.027344 7.9433l0 1 2.083984 0 0-1-2.083984 0zm7.056641 0l0 1 5.015625 0 0-1-5.015625 0zM13 1035.3613l0 1 2 0 0-1-2 0z"
      color="#000" font-family="sans-serif" font-weight="400" overflow="visible"></path>
    <path fill="#2b4255"
      d="m 24.000017,1036.6627 0.999966,0 c 9e-6,0 1.7e-5,0 1.7e-5,0 l 0,2.6995 c 0,0 -8e-6,0 -1.7e-5,0 l -0.999966,0 c -9e-6,0 -1.7e-5,0 -1.7e-5,0 l 0,-2.6995 c 0,0 8e-6,0 1.7e-5,0 z">
    </path>
    <path fill="#2b4255" fill-rule="evenodd"
      style="line-height:normal;text-indent:0;text-align:start;text-decoration-line:none;text-decoration-style:solid;text-decoration-color:#000;text-transform:none;block-progression:tb;isolation:auto;mix-blend-mode:normal"
      d="m 24.164062,1025.3652 -1.234374,0.02 c -0.752639,-0.034 -2.986329,0 -2.986329,0 l -0.0098,0 -0.0078,0 c -0.457839,0.021 -1.085223,0.164 -1.705078,0.5195 -0.619855,0.3555 -1.227536,0.9491 -1.482422,1.832 l -0.002,0.01 -0.529297,1.9961 -0.52539,1.9902 -0.527344,1.9903 -0.527344,1.9902 -0.527344,1.9922 -0.52539,1.9883 -0.527344,1.9023 0.964844,0.2676 0.527343,-1.9102 0.527344,-1.9922 0.527344,-1.9922 0.527344,-1.9902 0.527344,-1.9902 0.52539,-1.9903 0.525391,-1.9804 c 0.172124,-0.5962 0.5635,-0.9807 1.019531,-1.2422 0.453886,-0.2603 0.972734,-0.3731 1.248047,-0.3867 0.01561,-2e-4 2.366921,-0.03 2.945312,-0 l 0.01563,0 1.240235,-0.02 c 0.675973,0 1.402855,0.3289 1.945312,0.8321 0.542457,0.5031 0.878906,1.1613 0.878907,1.7363 l 0,10.2637 1,0 0,-10.2637 c 0,-0.9403 -0.493613,-1.8161 -1.197266,-2.4688 -0.703653,-0.6526 -1.639563,-1.0996 -2.626953,-1.0996 l -0.0039,0 z"
      color="#000" font-family="sans-serif" font-weight="400" overflow="visible"></path>
    <path fill="#2b4255" fill-rule="evenodd"
      style="line-height:normal;text-indent:0;text-align:start;text-decoration-line:none;text-decoration-style:solid;text-decoration-color:#000;text-transform:none;block-progression:tb;isolation:auto;mix-blend-mode:normal"
      d="M 25.492188,1033.3613 A 0.50004997,0.50004997 0 0 0 25,1033.8691 l 0,2.4922 -2.492188,0 a 0.50004997,0.50004997 0 1 0 0,1 l 3.492188,0 0,-3.4922 a 0.50004997,0.50004997 0 0 0 -0.507812,-0.5078 z"
      color="#000" font-family="sans-serif" font-weight="400" overflow="visible"></path>
    <path fill="#f05542"
      style="line-height:normal;text-indent:0;text-align:start;text-decoration-line:none;text-decoration-style:solid;text-decoration-color:#000;text-transform:none;block-progression:tb;isolation:auto;mix-blend-mode:normal"
      d="m 27.5,1042.3613 c -1.37479,0 -2.5,1.1252 -2.5,2.5 0,1.3748 1.12521,2.5 2.5,2.5 1.37479,0 2.5,-1.1252 2.5,-2.5 0,-1.3748 -1.12521,-2.5 -2.5,-2.5 z m 0,1 c 0.834349,0 1.5,0.6657 1.5,1.5 0,0.8344 -0.665651,1.5 -1.5,1.5 -0.834349,0 -1.5,-0.6656 -1.5,-1.5 0,-0.8343 0.665651,-1.5 1.5,-1.5 z"
      color="#000" font-family="sans-serif" font-weight="400" overflow="visible"></path>
    <path fill="#f05542"
      d="m 28,1044.8622 a 0.5,0.5 0 0 1 -0.5,0.5 0.5,0.5 0 0 1 -0.5,-0.5 0.5,0.5 0 0 1 0.5,-0.5 0.5,0.5 0 0 1 0.5,0.5 z">
    </path>
    <path fill="#2b4255" fill-rule="evenodd"
      style="line-height:normal;text-indent:0;text-align:start;text-decoration-line:none;text-decoration-style:solid;text-decoration-color:#000;text-transform:none;block-progression:tb;isolation:auto;mix-blend-mode:normal"
      d="M13 1025.3613l0 20 1 0 0-20-1 0zM2 1044.3613l0 1 8.673828 0 0-1-8.673828 0z" color="#000"
      font-family="sans-serif" font-weight="400" overflow="visible"></path>
    <path fill="#2b4255" fill-rule="evenodd"
      style="line-height:normal;text-indent:0;text-align:start;text-decoration-line:none;text-decoration-style:solid;text-decoration-color:#000;text-transform:none;block-progression:tb;isolation:auto;mix-blend-mode:normal"
      d="m 10,1037.3613 0,8 1,0 0,-8 -1,0 z" color="#000" font-family="sans-serif" font-weight="400" overflow="visible">
    </path>
    <path fill="#2b4255" fill-rule="evenodd"
      style="line-height:normal;text-indent:0;text-align:start;text-decoration-line:none;text-decoration-style:solid;text-decoration-color:#000;text-transform:none;block-progression:tb;isolation:auto;mix-blend-mode:normal"
      d="M10 1038.3613l0 1 3.673828 0 0-1-3.673828 0zM10 1040.3613l0 1 3.673828 0 0-1-3.673828 0z" color="#000"
      font-family="sans-serif" font-weight="400" overflow="visible"></path>
    <path fill="#f05542"
      style="line-height:normal;text-indent:0;text-align:start;text-decoration-line:none;text-decoration-style:solid;text-decoration-color:#000;text-transform:none;block-progression:tb;isolation:auto;mix-blend-mode:normal"
      d="m 18,1041.3613 c -1.650932,0 -3,1.3491 -3,3 0,1.651 1.349068,3 3,3 1.650932,0 3,-1.349 3,-3 0,-1.6509 -1.349068,-3 -3,-3 z m 0,1 c 1.110492,0 2,0.8895 2,2 0,1.1105 -0.889508,2 -2,2 -1.110492,0 -2,-0.8895 -2,-2 0,-1.1105 0.889508,-2 2,-2 z"
      color="#000" font-family="sans-serif" font-weight="400" overflow="visible"></path>
    <path fill="#f05542"
      d="m 18.5,1044.3622 a 0.5,0.5 0 0 1 -0.5,0.5 0.5,0.5 0 0 1 -0.5,-0.5 0.5,0.5 0 0 1 0.5,-0.5 0.5,0.5 0 0 1 0.5,0.5 z">
    </path>
    <path fill="#f05542"
      style="line-height:normal;text-indent:0;text-align:start;text-decoration-line:none;text-decoration-style:solid;text-decoration-color:#000;text-transform:none;block-progression:tb;isolation:auto;mix-blend-mode:normal"
      d="m 5.2128906,1039.2988 a 0.50005,0.50005 0 0 0 -0.5,0.5 l 0,1.9239 a 0.50005,0.50005 0 0 0 0.6816406,0.4648 l 0.7949219,-0.3125 0.7578125,0.3105 a 0.50005,0.50005 0 0 0 0.6894532,-0.4628 l 0,-1.9239 a 0.50005,0.50005 0 0 0 -0.5,-0.5 l -1.9238282,0 z m 0.5,1 0.9238282,0 0,0.6797 -0.2539063,-0.1035 a 0.50005,0.50005 0 0 0 -0.3710937,-0 l -0.2988282,0.1172 0,-0.6895 z"
      color="#000" font-family="sans-serif" font-weight="400" overflow="visible"></path>
    <path fill="#2b4255" fill-rule="evenodd"
      style="line-height:normal;text-indent:0;text-align:start;text-decoration-line:none;text-decoration-style:solid;text-decoration-color:#000;text-transform:none;block-progression:tb;isolation:auto;mix-blend-mode:normal"
      d="m 18.482422,1033.6582 -2.394531,2.4922 0.720703,0.6914 2.394531,-2.4922 -0.720703,-0.6914 z" color="#000"
      font-family="sans-serif" font-weight="400" overflow="visible"></path>
  </g>
</svg>