<svg width="896" height="748" viewBox="0 0 896 748" fill="none" xmlns="http://www.w3.org/2000/svg">
  <path
    d="M161.632 633.833C174.061 656.882 200.438 666.777 200.438 666.777C200.438 666.777 206.666 639.301 194.237 616.252C181.809 593.203 155.431 583.309 155.431 583.309C155.431 583.309 149.204 610.784 161.632 633.833Z"
    fill="#2F2E41" />
  <path
    d="M170.177 626.247C192.615 639.747 201.257 666.561 201.257 666.561C201.257 666.561 173.519 671.487 151.08 657.988C128.642 644.488 120 617.674 120 617.674C120 617.674 147.738 612.747 170.177 626.247Z"
    fill="#6C63FF" />
  <path d="M673.25 115H533.25V117H673.25V115Z" fill="#F2F2F2" />
  <path d="M635.25 117.5H633.25V136H635.25V117.5Z" fill="#F2F2F2" />
  <path d="M574.25 117.5H572.25V136H574.25V117.5Z" fill="#F2F2F2" />
  <path d="M744.25 212H604.25V214H744.25V212Z" fill="#F2F2F2" />
  <path d="M644.25 194H642.25V212.5H644.25V194Z" fill="#F2F2F2" />
  <path d="M705.25 193H703.25V211.5H705.25V193Z" fill="#F2F2F2" />
  <path d="M761.25 257H621.25V259H761.25V257Z" fill="#F2F2F2" />
  <path d="M664.25 239H662.25V257.5H664.25V239Z" fill="#F2F2F2" />
  <path d="M725.25 80H723.25V98.5H725.25V80Z" fill="#F2F2F2" />
  <path d="M747.25 562H607.25V564H747.25V562Z" fill="#F2F2F2" />
  <path d="M650.25 544H648.25V562.5H650.25V544Z" fill="#F2F2F2" />
  <path d="M708.25 544H706.25V562.5H708.25V544Z" fill="#F2F2F2" />
  <path d="M677.25 241H537.25V243H677.25V241Z" fill="#F2F2F2" />
  <path d="M577.25 223H575.25V241.5H577.25V223Z" fill="#F2F2F2" />
  <path d="M638.25 223H636.25V241.5H638.25V223Z" fill="#F2F2F2" />
  <path d="M721.25 482H581.25V484H721.25V482Z" fill="#F2F2F2" />
  <path d="M621.25 464H619.25V482.5H621.25V464Z" fill="#F2F2F2" />
  <path d="M682.25 464H680.25V482.5H682.25V464Z" fill="#F2F2F2" />
  <path d="M776.25 409H636.25V411H776.25V409Z" fill="#F2F2F2" />
  <path d="M679.25 391H677.25V409.5H679.25V391Z" fill="#F2F2F2" />
  <path d="M740.25 391H738.25V409.5H740.25V391Z" fill="#F2F2F2" />
  <path
    d="M482.059 623.278H245.273V621.575H480.355V538.955H265.179L254.726 517.178L256.262 516.441L266.251 537.251H482.059V623.278Z"
    fill="#2F2E41" />
  <path
    d="M276.789 665.012C286.668 665.012 294.676 657.004 294.676 647.125C294.676 637.246 286.668 629.238 276.789 629.238C266.911 629.238 258.902 637.246 258.902 647.125C258.902 657.004 266.911 665.012 276.789 665.012Z"
    fill="#3F3D56" />
  <path
    d="M453.102 665.012C462.98 665.012 470.988 657.004 470.988 647.125C470.988 637.246 462.98 629.238 453.102 629.238C443.223 629.238 435.215 637.246 435.215 647.125C435.215 657.004 443.223 665.012 453.102 665.012Z"
    fill="#3F3D56" />
  <path
    d="M507.385 510.846H241.237L183.648 322.609H566.693L566.344 323.717L507.385 510.846ZM242.497 509.142H506.136L564.37 324.313H185.951L242.497 509.142Z"
    fill="#2F2E41" />
  <path d="M486.612 501.052H252.844L202.262 334.109H538.703L538.397 335.092L486.612 501.052Z" fill="#F2F2F2" />
  <path d="M571.463 305.794L569.816 305.357L581.057 262.988H646.446V264.692H582.368L571.463 305.794Z" fill="#2F2E41" />
  <path d="M547.551 379.676H202.258V381.379H547.551V379.676Z" fill="#2F2E41" />
  <path d="M527.776 442.438H221.457V444.141H527.776V442.438Z" fill="#2F2E41" />
  <path d="M376.016 323.461H374.312V509.994H376.016V323.461Z" fill="#2F2E41" />
  <path d="M452.287 323.409L440.059 509.938L441.759 510.049L453.987 323.521L452.287 323.409Z" fill="#2F2E41" />
  <path d="M298.079 323.405L296.379 323.516L308.536 510.049L310.236 509.938L298.079 323.405Z" fill="#2F2E41" />
  <path d="M708 666.094H120V668.094H708V666.094Z" fill="#2F2E41" />
  <path d="M320.25 274H180.25V276H320.25V274Z" fill="#F2F2F2" />
  <path d="M220.25 256H218.25V274.5H220.25V256Z" fill="#F2F2F2" />
  <path d="M281.25 256H279.25V274.5H281.25V256Z" fill="#F2F2F2" />
  <path d="M369.25 137H229.25V139H369.25V137Z" fill="#F2F2F2" />
  <path d="M331.25 138.5H329.25V157H331.25V138.5Z" fill="#F2F2F2" />
  <path d="M270.25 138.5H268.25V157H270.25V138.5Z" fill="#F2F2F2" />
  <path d="M510.25 175H370.25V177H510.25V175Z" fill="#F2F2F2" />
  <path d="M472.25 176.5H470.25V195H472.25V176.5Z" fill="#F2F2F2" />
  <path d="M411.25 176.5H409.25V195H411.25V176.5Z" fill="#F2F2F2" />
  <path d="M272.25 174H132.25V176H272.25V174Z" fill="#F2F2F2" />
  <path d="M234.25 175.5H232.25V194H234.25V175.5Z" fill="#F2F2F2" />
  <path d="M172.25 175.5H170.25V194H172.25V175.5Z" fill="#F2F2F2" />
  <path d="M440.25 233H300.25V235H440.25V233Z" fill="#F2F2F2" />
  <path d="M340.25 215H338.25V233.5H340.25V215Z" fill="#F2F2F2" />
  <path d="M401.25 215H399.25V233.5H401.25V215Z" fill="#F2F2F2" />
</svg>