<svg xmlns="http://www.w3.org/2000/svg" width="512" height="512" fill-rule="evenodd" clip-rule="evenodd" image-rendering="optimizeQuality" shape-rendering="geometricPrecision" text-rendering="geometricPrecision" id="toyota"><path fill="#2b2a29" d="M256 105h1c129 0 233 67 233 150S386 404 257 405h-2c-129 0-233-67-233-150s104-149 233-150h1zm45 107h-90c8-36 25-61 45-61s37 25 45 61zm-94 26h98c0 6 1 11 1 17 0 58-22 104-50 104-27 0-50-47-50-104 0-6 0-12 1-17zm74-118c19 16 34 49 40 91 57-9 74-32 79-44-30-25-72-42-119-47zm43 118v17c0 61-18 114-44 135 93-9 164-66 164-135 0-22-7-43-21-62-13 16-45 35-101 45zm-94 152c-26-21-44-74-44-135v-17c-56-10-88-29-101-45-13 19-21 40-21 62 0 69 72 126 164 135zm-40-180c6-42 21-75 40-91-48 5-90 22-119 47 5 12 22 35 79 44z"></path></svg>