<svg xmlns="http://www.w3.org/2000/svg" viewBox="0 0 64 64" id="order">
  <rect width="40" height="58" x="5.5" y="3" fill="#00caff" rx="2"></rect>
  <rect width="32" height="47" x="9.5" y="7" fill="#fff" rx="2"></rect>
  <path fill="#fff" d="M56.5,11h-32a2,2,0,0,0-2,2V50l5.71429-5H56.5a2,2,0,0,0,2-2V13A2,2,0,0,0,56.5,11Z"></path>
  <path fill="#fff" d="M53.811,26.52625A2,2,0,0,0,51.88153,24H33.5v5H53.13641Z"></path>
  <path fill="#00caff" d="M33.5,29v4a2,2,0,0,0,2,2H49.97241A2,2,0,0,0,51.902,33.52625L53.13641,29Z"></path>
  <circle cx="36.5" cy="38" r="3" fill="#333"></circle>
  <circle cx="49.5" cy="38" r="3" fill="#333"></circle>
  <path fill="#fff" d="M28.5,55.96722h-6a1,1,0,0,0,0,2h6A1.00019,1.00019,0,0,0,28.5,55.96722Z"></path>
  <path fill="#333"
    d="M56.5,9.96722h-10v-5a3.00328,3.00328,0,0,0-3-3H7.5a3.00328,3.00328,0,0,0-3,3v54a3.00328,3.00328,0,0,0,3,3h36a3.00328,3.00328,0,0,0,3-3v-13h10a3.00328,3.00328,0,0,0,3-3v-30A3.00328,3.00328,0,0,0,56.5,9.96722Zm-12,49a1.001,1.001,0,0,1-1,1H7.5a1.001,1.001,0,0,1-1-1v-54a1.001,1.001,0,0,1,1-1h36a1.001,1.001,0,0,1,1,1v5h-20a3.00328,3.00328,0,0,0-3,3v37a1.0072,1.0072,0,0,0,1.65869.75287l5.43164-4.75287H44.5Zm13-16a1.001,1.001,0,0,1-1,1H28.21436a1.00254,1.00254,0,0,0-.6587.24707L23.5,47.76312V12.96722a1.001,1.001,0,0,1,1-1h32a1.001,1.001,0,0,1,1,1Z">
  </path>
  <path fill="#333"
    d="M51.88135,22.96722H34.5v-7a.99973.99973,0,0,0-1-1h-4a1.00018,1.00018,0,0,0,.00006,2l2.99994,0v16a2.98128,2.98128,0,0,0,1.07977,2.28558,3.99049,3.99049,0,1,0,6.36389.71442h6.11268a3.9897,3.9897,0,1,0,6.11053-.95954,2.98592,2.98592,0,0,0,.69983-1.2514l1.90918-6.999A3.01743,3.01743,0,0,0,51.88135,22.96722Zm-13.38135,15a2.00021,2.00021,0,0,1-4-.00009A2.00021,2.00021,0,0,1,38.5,37.96722Zm11,2a2.00021,2.00021,0,0,1,.00009-4A2.00021,2.00021,0,0,1,49.5,39.96722Zm-14-6a1.001,1.001,0,0,1-1-1v-8H51.88135a1.0058,1.0058,0,0,1,.96483,1.26368l-.47356,1.73632H44.5a1.00018,1.00018,0,0,0,.00006,2l7.32709,0L50.937,33.23089a1.002,1.002,0,0,1-.96484.73633Z">
  </path>
  <circle cx="10.75" cy="7.75" r="1.311" fill="#333"></circle>
  <path fill="#333"
    d="M10.75,10A2.25,2.25,0,1,1,13,7.75,2.25309,2.25309,0,0,1,10.75,10Zm0-4A1.75,1.75,0,1,0,12.5,7.75,1.75213,1.75213,0,0,0,10.75,6Z">
  </path>
</svg>